# xmcd
# 
# Track frame offsets:
#     150
#     13297
#     28175
#     42652
#     57397
# 
# Disc length: 978
# 
# Revision: 0
# Processed by: cddbd v1.5.2PL0 Copyright (c) Steve Scherf et al.
# Submitted via: fre:ac v1.0.17
# 
DISCID=4503d005
DTITLE=Emily Hearn - Paper Heart
DYEAR=2010
DGENRE=Pop
TTITLE0=Rooftop
TTITLE1=Two Feet on the Ground
TTITLE2=Wreck
TTITLE3=Not The One
TTITLE4=Paper Heart
EXTD=
EXTT0=
EXTT1=
EXTT2=
EXTT3=
EXTT4=
PLAYORDER=
